<svg xmlns="http://www.w3.org/2000/svg" viewBox="0 0 2523.83 282.89"><title>dice_red</title><g id="_4" data-name="4"><polygon points="167 1.1 334 281.71 0 281.71 167 1.1" style="fill:#cb2027"/></g><g id="_6" data-name="6"><rect x="398.65" y="1.1" width="292.44" height="280.61" style="fill:#cb2027"/></g><g id="_8" data-name="8"><polygon points="900.02 1.1 766.3 158.64 796.05 209.04 900.02 282.89 1003.99 209.04 1033.75 158.64 900.02 1.1" style="fill:#a41e22"/><polygon points="796.05 209.04 900.02 1.1 1003.99 209.04 796.05 209.04" style="fill:#cb2027"/></g><g id="_10" data-name="10"><polygon points="1267.3 1.1 1133.58 158.64 1163.33 209.04 1267.3 282.89 1371.27 209.04 1401.03 158.64 1267.3 1.1" style="fill:#a41e22"/><polygon points="1267.3 1.1 1267.3 282.89 1371.27 209.04 1401.03 158.64 1267.3 1.1" style="fill:#921a1d"/><polygon points="1163.33 209.04 1267.3 1.1 1371.27 209.04 1267.3 240.47 1163.33 209.04" style="fill:#cb2027"/></g><g id="_12" data-name="12"><polygon points="1665.65 37.47 1567.14 109.04 1604.77 224.84 1726.53 224.84 1764.16 109.04 1665.65 37.47" style="fill:#cb2027"/><polygon points="1726.53 224.84 1604.77 224.84 1583.21 254.52 1665.65 281.71 1748.09 254.52 1726.53 224.84" style="fill:#9f1d27"/><polygon points="1764.16 109.04 1726.53 224.84 1748.09 254.52 1799.43 184.52 1799.04 97.71 1764.16 109.04" style="fill:#921a1d"/><polygon points="1665.65 37.47 1764.16 109.04 1799.04 97.71 1748.33 27.25 1665.65 0.79 1665.65 37.47" style="fill:#b01a1f"/><polygon points="1567.14 109.04 1665.65 37.47 1665.65 0.79 1582.97 27.25 1532.26 97.71 1567.14 109.04" style="fill:#d62c37"/><polygon points="1604.77 224.84 1567.14 109.04 1532.26 97.71 1531.87 184.52 1583.21 254.52 1604.77 224.84" style="fill:#b01a1f"/></g><g id="_20" data-name="20"><polygon points="2140.92 202.38 1928.43 202.38 2034.82 18.44 2140.92 202.38" style="fill:#cb2027"/><polygon points="2034.82 0.58 1913.11 70.84 1913.11 211.38 2034.82 281.64 2156.52 211.38 2156.52 70.84 2034.82 0.58" style="fill:none;stroke:#cb2027;stroke-miterlimit:10"/><polygon points="2034.82 0.58 2034.78 18.39 2156.52 70.84 2034.82 0.58" style="fill:#b01a1f"/><polygon points="2034.78 0.58 2034.81 18.39 1913.07 70.84 2034.78 0.58" style="fill:#cb2027"/><polygon points="1913.14 211.41 1928.55 202.47 2034.84 281.68 1913.14 211.41" style="fill:#9f1d27"/><polygon points="2156.55 211.34 2141.1 202.46 2156.55 70.81 2156.55 211.34" style="fill:#921a1d"/><polygon points="2141.11 202.44 2156.52 211.38 2034.82 281.64 2141.11 202.44" style="fill:#841720"/><polygon points="1928.57 202.37 1913.11 211.38 1913.11 70.84 1928.57 202.37" style="fill:#cb2027"/><polygon points="2034.78 18.39 1928.57 202.37 1913.11 70.84 2034.78 18.39" style="fill:#d62c37"/><polygon points="2141.11 202.44 2034.78 18.39 2156.52 70.84 2141.11 202.44" style="fill:#9f1d27"/><polygon points="1928.57 202.37 2034.82 281.64 2141.11 202.44 1928.57 202.37" style="fill:#921a1d"/></g><g id="_100" data-name="100"><polygon points="2390.1 1.1 2256.38 158.64 2286.13 209.04 2390.1 282.89 2494.07 209.04 2523.82 158.64 2390.1 1.1" style="fill:#a41e22"/><polygon points="2390.1 1.1 2390.1 282.89 2494.07 209.04 2523.82 158.64 2390.1 1.1" style="fill:#921a1d"/><polygon points="2286.13 209.04 2390.1 1.1 2494.07 209.04 2390.1 240.47 2286.13 209.04" style="fill:#cb2027"/></g></svg>